<?xml version="1.0" encoding="UTF-8" standalone="no"?>
<svg
   xmlns:dc="http://purl.org/dc/elements/1.1/"
   xmlns:cc="http://creativecommons.org/ns#"
   xmlns:rdf="http://www.w3.org/1999/02/22-rdf-syntax-ns#"
   xmlns:svg="http://www.w3.org/2000/svg"
   xmlns="http://www.w3.org/2000/svg"
   xmlns:sodipodi="http://sodipodi.sourceforge.net/DTD/sodipodi-0.dtd"
   xmlns:inkscape="http://www.inkscape.org/namespaces/inkscape"
   enable-background="new 0 0 24 24"
   height="24px"
   version="1.1"
   viewBox="0 0 24 24"
   width="24px">
	<style>
      path, g {
        fill: #000000;
      }
      @media (prefers-color-scheme: dark) {
        path, g {
          fill: #E9ECEF;
        }
      }
    </style>
	<path
   d="m 9.0917055,23.066965 c -1.5464755,0 -2.706332,-1.643131 -3.382915,-2.706332 C 3.7756962,17.557646 2.7124943,12.91822 4.4522792,9.9219235 5.4188263,8.2787933 7.0619565,7.2155914 8.8983961,7.2155914 c 0,0 0,0 0,0 0.8698924,0 1.5464749,0.2899642 2.2230579,0.5799283 0.386619,0.096655 0.773238,0.2899642 0.966548,0.2899642 0.193309,0 0.579928,-0.1933095 0.966547,-0.2899642 0.773237,-0.3866188 1.836439,-0.7732377 2.802986,-0.676583 0.579929,0 2.609678,0.2899642 3.866189,2.1264038 0.09665,0.096655 0.09665,0.1933094 0.09665,0.3866188 0,0.096655 -0.09665,0.1933094 -0.19331,0.2899642 -0.483273,0.2899645 -1.933094,1.3531655 -1.836439,3.3829145 0,2.513023 2.029749,3.47957 2.319713,3.576225 0.193309,0.09666 0.386619,0.386619 0.289964,0.579928 -0.09666,0.483274 -0.579928,1.64313 -1.449821,2.899642 -0.773237,1.159856 -1.739785,2.609677 -3.382915,2.609677 0,0 0,0 0,0 -0.773237,0 -1.256511,-0.19331 -1.739785,-0.386619 -0.483273,-0.193309 -0.869892,-0.386619 -1.546475,-0.386619 -0.676583,0 -1.159857,0.19331 -1.546475,0.386619 -0.386619,0.289964 -0.8698928,0.483274 -1.6431305,0.483274 0.096655,0 0,0 0,0 z M 8.9950508,8.1821386 c -1.4498208,0 -2.8996415,0.8698924 -3.6728792,2.2230584 -1.6431302,2.899641 -0.2899641,7.249104 1.2565113,9.472162 0.7732377,1.063202 1.5464754,2.223058 2.5130226,2.223058 v 0.483274 l 0.096655,-0.483274 c 0.4832736,0 0.8698925,-0.193309 1.2565105,-0.386618 0.483274,-0.19331 1.063202,-0.483274 1.933095,-0.483274 0.869892,0 1.44982,0.289964 1.933094,0.483274 0.386619,0.193309 0.773238,0.289964 1.256511,0.289964 1.063202,0 1.83644,-0.966547 2.609678,-2.223059 0.579928,-0.869892 0.966547,-1.739785 1.159856,-2.319713 -0.773238,-0.483273 -2.513022,-1.739785 -2.513022,-4.252807 0,-2.029749 1.159856,-3.2862605 1.933094,-3.8661888 -1.063202,-1.0632019 -2.513023,-1.2565113 -2.899642,-1.2565113 -0.09665,0 -0.193309,0 -0.289964,0 -0.676583,0 -1.44982,0.2899641 -2.029749,0.5799283 -0.579928,0.1933094 -1.063202,0.3866188 -1.44982,0.3866188 -0.386619,0 -0.869893,-0.1933094 -1.353166,-0.3866188 C 10.154907,8.375448 9.5749791,8.1821386 8.9950508,8.1821386 Z"
   style="stroke-width:0.77323771;stroke-miterlimit:4;stroke-dasharray:none;stroke-opacity:1"
   inkscape:connector-curvature="0" />
	<path
   d="m 12.184656,6.7323179 v 0 c -0.09665,0 -0.193309,0 -0.289964,0 -0.193309,0 -0.386619,-0.1933095 -0.483273,-0.3866189 -0.19331,-1.4498207 0.483273,-2.8029867 1.256511,-3.6728792 0.869892,-0.9665471 2.223058,-1.73978487 3.382915,-1.73978487 0.289964,0 0.483273,0.19330947 0.483273,0.38661887 0.09666,1.2565113 -0.289964,2.706332 -1.159856,3.7695339 -0.773238,0.9665472 -2.029749,1.6431302 -3.189606,1.6431302 z m 3.47957,-4.8327358 c -0.773238,0.1933094 -1.64313,0.676583 -2.223058,1.353166 -0.483274,0.5799283 -0.966548,1.5464755 -1.063202,2.5130226 0.773237,-0.096655 1.64313,-0.5799283 2.223058,-1.353166 0.676583,-0.7732377 1.063202,-1.6431302 1.063202,-2.5130226 z"
   style="stroke-width:0.77323771;stroke-miterlimit:4;stroke-dasharray:none;stroke-opacity:1"
   inkscape:connector-curvature="0" />
</svg>
