<?xml version="1.0" encoding="UTF-8" standalone="no"?>
<svg
   xmlns:dc="http://purl.org/dc/elements/1.1/"
   xmlns:cc="http://creativecommons.org/ns#"
   xmlns:rdf="http://www.w3.org/1999/02/22-rdf-syntax-ns#"
   xmlns:svg="http://www.w3.org/2000/svg"
   xmlns="http://www.w3.org/2000/svg"
   xmlns:sodipodi="http://sodipodi.sourceforge.net/DTD/sodipodi-0.dtd"
   xmlns:inkscape="http://www.inkscape.org/namespaces/inkscape"
   height="24"
   viewBox="0 0 24 24"
   width="24"
   version="1.1"
   id="svg6"
   sodipodi:docname="error.message.svg"
   inkscape:version="0.92.5 (2060ec1f9f, 2020-04-08)">
  <style
     id="style2">
      path, g {
       fill: #007800;
      }
      @media (prefers-color-scheme: dark) {
       path, g {
        fill: #00a000;
       }
      }
   </style>
  <metadata
     id="metadata12">
    <rdf:RDF>
      <cc:Work
         rdf:about="">
        <dc:format>image/svg+xml</dc:format>
        <dc:type
           rdf:resource="http://purl.org/dc/dcmitype/StillImage" />
      </cc:Work>
    </rdf:RDF>
  </metadata>
  <defs
     id="defs10" />
  <sodipodi:namedview
     pagecolor="#ffffff"
     bordercolor="#666666"
     borderopacity="1"
     objecttolerance="10"
     gridtolerance="10"
     guidetolerance="10"
     inkscape:pageopacity="0"
     inkscape:pageshadow="2"
     inkscape:window-width="1735"
     inkscape:window-height="1109"
     id="namedview8"
     showgrid="false"
     inkscape:zoom="9.8333333"
     inkscape:cx="2.3389831"
     inkscape:cy="16.64942"
     inkscape:window-x="825"
     inkscape:window-y="96"
     inkscape:window-maximized="0"
     inkscape:current-layer="svg6" />
  <circle
     style="opacity:1;fill:#ec5870;fill-opacity:1;stroke:none;stroke-width:3.14666677;stroke-linecap:round;stroke-linejoin:bevel;stroke-miterlimit:4;stroke-dasharray:none;stroke-opacity:1;paint-order:markers stroke fill"
     id="path814"
     cx="12"
     cy="12"
     r="12" />
  <path
     style="fill:#ffffff;fill-opacity:1;stroke-width:0.91012508"
     inkscape:connector-curvature="0"
     d="m 17.733788,6.2753129 c -0.354949,-0.3549488 -0.928328,-0.3549488 -1.283276,0 L 12,10.716724 7.5494882,6.2662118 c -0.3549488,-0.3549489 -0.9283277,-0.3549489 -1.2832765,0 -0.3549489,0.3549488 -0.3549489,0.9283277 0,1.2832765 L 10.716723,12 6.2662117,16.450512 c -0.3549489,0.354949 -0.3549489,0.928328 0,1.283277 0.3549488,0.354948 0.9283277,0.354948 1.2832765,0 L 12,13.283277 l 4.450512,4.450512 c 0.354948,0.354948 0.928327,0.354948 1.283276,0 0.354949,-0.354949 0.354949,-0.928328 0,-1.283277 L 13.283276,12 17.733788,7.5494883 c 0.345848,-0.3458477 0.345848,-0.9283277 0,-1.2741754 z"
     id="path827" />
</svg>
