<?xml version="1.0" encoding="UTF-8" standalone="no"?>
<svg
	 height="24px"
	 viewBox="0 0 24 24"
	 width="24px"
	 version="1.1"
	 xmlns="http://www.w3.org/2000/svg"
	 xmlns:svg="http://www.w3.org/2000/svg">
	<style
		 id="style2">
			path, g {
				 fill: #000000;
			}
			@media (prefers-color-scheme: dark) {
				 path, g {
						fill: #E9ECEF;
				 }
			}
	 </style>
	<path
		 d="m 19.563026,7.5975381 v 2.9999849 11 h -11.999983 -2 c 0,1.1 0.888284,2 1.988281,2 h 12.011702 c 1.100001,0 2,-0.9 2,-2 V 9.5975385 Z"
		 style="opacity:0.6" />
	<path
		 d="m 6.436974,14.402477 h 8 v 2 h -8 z m 0,-4 h 8 v 2 h -8 z m 6,-9.99999907 h -8 c -1.1,0 -2,0.90000007 -2,2.00000007 v 15.999999 c 0,1.1 0.89,2 1.99,2 h 12.01 c 1.1,0 2,-0.9 2,-2 V 6.402478 Z m 4,17.99999907 h -12 V 2.402478 h 7 v 5 h 5 z" />
</svg>
