<?xml version="1.0" encoding="UTF-8" standalone="no"?>
<svg
   xmlns:dc="http://purl.org/dc/elements/1.1/"
   xmlns:cc="http://creativecommons.org/ns#"
   xmlns:rdf="http://www.w3.org/1999/02/22-rdf-syntax-ns#"
   xmlns:svg="http://www.w3.org/2000/svg"
   xmlns="http://www.w3.org/2000/svg"
   xmlns:sodipodi="http://sodipodi.sourceforge.net/DTD/sodipodi-0.dtd"
   xmlns:inkscape="http://www.inkscape.org/namespaces/inkscape"
   height="24"
   viewBox="0 0 24 24"
   width="24"
   version="1.1">
  <style
     id="style2">
		path, g {
			fill: #000000;
		}
		@media (prefers-color-scheme: dark) {
			path, g {
				fill: #E9ECEF;
			}
		}
	</style>
  <path
     d="m 13.467975,12.024085 v -1.467974 h -2.935949 v 1.467974 z m -7.3398747,1.467976 v 8.073862 H 17.8719 V 13.492061 Z M 17.8719,12.024085 c 0.814726,0 1.467975,0.653249 1.467975,1.467976 v 8.073862 c 0,0.814726 -0.653249,1.467975 -1.467975,1.467975 H 6.1281003 c -0.8147261,0 -1.467975,-0.653249 -1.467975,-1.467975 l 0.00733,-8.073862 c 0,-0.814727 0.645909,-1.467976 1.4606351,-1.467976 h 2.9359554 v -1.467974 c 0,-0.8147265 0.6532487,-1.4679754 1.4679752,-1.4679754 h 2.935949 c 0.814726,0 1.467975,0.6532489 1.467975,1.4679754 v 1.467974 z"
     id="path4"
     inkscape:connector-curvature="0"
     style="fill-rule:evenodd;stroke-width:0.73398751" />
  <path
     style="stroke-width:0.76141959"
     inkscape:connector-curvature="0"
     d="m 17.048212,3.2326359 c -1.408625,-1.2258855 -3.236032,-1.979691 -5.253794,-1.979691 -3.5406028,0 -6.5329812,2.3071013 -7.5837398,5.4974493 L 6.0076283,7.3443015 C 6.8071191,4.9153731 9.0913767,3.1564939 11.794418,3.1564939 c 1.484769,0 2.840094,0.5482221 3.898468,1.4314688 l -2.756339,2.7563388 h 6.852775 V 0.49152545 Z"
     id="path824" />
</svg>
