<?xml version="1.0" encoding="UTF-8" standalone="no"?>
<svg
   xmlns:dc="http://purl.org/dc/elements/1.1/"
   xmlns:cc="http://creativecommons.org/ns#"
   xmlns:rdf="http://www.w3.org/1999/02/22-rdf-syntax-ns#"
   xmlns:svg="http://www.w3.org/2000/svg"
   xmlns="http://www.w3.org/2000/svg"
   xmlns:sodipodi="http://sodipodi.sourceforge.net/DTD/sodipodi-0.dtd"
   xmlns:inkscape="http://www.inkscape.org/namespaces/inkscape"
   viewBox="0 0 24 24"
   version="1.1"
   id="svg7"
   sodipodi:docname="linux.svg"
   inkscape:version="0.92.5 (2060ec1f9f, 2020-04-08)">
  <metadata
     id="metadata13">
    <rdf:RDF>
      <cc:Work
         rdf:about="">
        <dc:format>image/svg+xml</dc:format>
        <dc:type
           rdf:resource="http://purl.org/dc/dcmitype/StillImage" />
        <dc:title></dc:title>
      </cc:Work>
    </rdf:RDF>
  </metadata>
  <defs
     id="defs11" />
  <sodipodi:namedview
     pagecolor="#ffffff"
     bordercolor="#666666"
     borderopacity="1"
     objecttolerance="10"
     gridtolerance="10"
     guidetolerance="10"
     inkscape:pageopacity="0"
     inkscape:pageshadow="2"
     inkscape:window-width="1818"
     inkscape:window-height="1168"
     id="namedview9"
     showgrid="false"
     inkscape:zoom="9.8333333"
     inkscape:cx="-15.152542"
     inkscape:cy="12"
     inkscape:window-x="0"
     inkscape:window-y="0"
     inkscape:window-maximized="0"
     inkscape:current-layer="svg7" />
	 <style>
       path, g {
         fill: #000000;
       }
       @media (prefers-color-scheme: dark) {
         path, g {
           fill: #E9ECEF;
         }
       }
     </style>
    <path
       d="m 20.93,19.07 a 3.72,3.72 0 0 1 -0.57,-0.43 c -0.09,-0.09 0,-0.5 0,-0.72 A 1.45,1.45 0 0 0 20.16,16.75 0.91,0.91 0 0 0 20,16.63 c 0,-0.2 0,-0.41 0,-0.64 A 9.84,9.84 0 0 0 17.3,9.37 4.42,4.42 0 0 1 16,7 V 6.77 C 16,5.39 16,2.51 14.5,1 A 3.39,3.39 0 0 0 12,0 C 9.9,0 8.5,1 8.5,6 A 8,8 0 0 1 7.31,9.68 C 7.04,10.2 6.77,10.74 6.53,11.31 A 24.32,24.32 0 0 0 5,16.1 1.59,1.59 0 0 0 4.22,17.3 L 4.14,17.63 A 2.78,2.78 0 0 1 3.6,17.77 C 3,17.89 2,18.09 2,19 A 3.82,3.82 0 0 0 2.08,19.73 3.21,3.21 0 0 1 2,21.38 0.49,0.49 0 0 0 2,21.51 C 2,22.7 3.87,22.86 5,23 H 5.44 A 4.52,4.52 0 0 1 6.23,23.32 5.82,5.82 0 0 0 8.5,24 1.17,1.17 0 0 0 9.36,23.61 H 9.41 A 5.94,5.94 0 0 1 12,23 h 3.06 A 1.33,1.33 0 0 0 15.35,23.55 1.48,1.48 0 0 0 16.5,24 3.2,3.2 0 0 0 19,22.68 l 0.32,-0.33 a 3.54,3.54 0 0 1 1.19,-0.59 c 0.72,-0.26 1.46,-0.53 1.46,-1.26 0,-0.73 -0.57,-1.11 -1.04,-1.43 z M 13,3 c 0.58,0 1,0.62 1,1.48 0,0.86 -0.33,1.34 -0.81,1.45 A 0.82,0.82 0 0 0 13.48,5.25 C 13.48,4.84 13.26,4.5 13,4.5 c -0.26,0 -0.48,0.33 -0.48,0.75 a 0.82,0.82 0 0 0 0.29,0.68 C 12.33,5.81 12,5.23 12,4.48 12,3.73 12.42,3 13,3 Z m 0.44,3.88 A 5.82,5.82 0 0 1 11,8 3.74,3.74 0 0 1 9.5,7 a 3.07,3.07 0 0 1 2,-1 3.91,3.91 0 0 1 1.94,0.88 z M 10,3 c 0.58,0 1,0.62 1,1.48 0,0.86 -0.33,1.33 -0.81,1.45 A 0.82,0.82 0 0 0 10.48,5.25 C 10.48,4.84 10.26,4.5 10,4.5 9.74,4.5 9.52,4.83 9.52,5.25 A 0.82,0.82 0 0 0 9.81,5.93 C 9.33,5.81 9,5.24 9,4.48 9,3.72 9.42,3 10,3 Z M 8.77,22.71 C 8.71,22.9 8.62,23 8.5,23 A 5.14,5.14 0 0 1 6.63,22.4 4.44,4.44 0 0 0 5.63,22 H 5.07 C 3.58,21.88 3.12,21.7 3.02,21.56 a 4.14,4.14 0 0 0 0.05,-2 A 3.36,3.36 0 0 1 3,19 2.24,2.24 0 0 1 3.83,18.74 2,2 0 0 0 4.83,18.35 1.66,1.66 0 0 0 5.2,17.53 C 5.33,17 5.38,17 5.45,17 a 3.92,3.92 0 0 1 0.7,1.18 5.6,5.6 0 0 0 1.54,2.24 2.27,2.27 0 0 1 1.08,2.29 z m 6.37,-3 c -1.47,1.48 -4.41,1.38 -5.71,1.18 A 3.64,3.64 0 0 0 8.28,19.6 5,5 0 0 1 7.07,17.75 4,4 0 0 0 6.07,16.18 23.88,23.88 0 0 1 7.5,11.7 c 0.21,-0.53 0.48,-1 0.74,-1.55 A 15.43,15.43 0 0 0 9.18,8.06 3.86,3.86 0 0 0 11,9 10.05,10.05 0 0 0 13.83,7.8 18.65,18.65 0 0 1 16,16.75 6.06,6.06 0 0 0 15.14,19.7 Z m 5.06,1.12 a 4.19,4.19 0 0 0 -1.55,0.83 l -0.34,0.35 a 2.27,2.27 0 0 1 -1.81,1 0.55,0.55 0 0 1 -0.41,-0.12 C 15.94,22.72 15.98,22.33 15.99,22.17 16,22.01 16,22 16,22 c 0,-0.3 0.28,-3.13 0.37,-3.58 a 1.43,1.43 0 0 0 0.13,0.17 1.34,1.34 0 0 0 1,0.42 h 0.35 a 2,2 0 0 0 1.47,-0.45 1.24,1.24 0 0 0 0.33,0.8 4.53,4.53 0 0 0 0.73,0.56 c 0.38,0.25 0.62,0.42 0.64,0.53 a 2.89,2.89 0 0 1 -0.82,0.37 z"
       style="fill-opacity:1"
       id="path4"
       inkscape:connector-curvature="0" />
</svg>
