<?xml version="1.0" encoding="UTF-8" standalone="no"?>
<svg
   height="24px"
   viewBox="0 0 24 24"
   width="24px"
   version="1.1"
   xmlns:inkscape="http://www.inkscape.org/namespaces/inkscape"
   xmlns:sodipodi="http://sodipodi.sourceforge.net/DTD/sodipodi-0.dtd"
   xmlns="http://www.w3.org/2000/svg"
   xmlns:svg="http://www.w3.org/2000/svg">
  <style>
        path, g {
          fill: #000000;
        }
        @media (prefers-color-scheme: dark) {
          path, g {
            fill: #E9ECEF;
          }
        }
      </style>
  <g
     transform="matrix(1.0151575,0,0,1.0151575,-0.18120882,-0.18188996)">
    <path
       d="m 9.0917055,23.066965 c -1.5464755,0 -2.706332,-1.643131 -3.382915,-2.706332 C 3.7756962,17.557646 2.7124943,12.91822 4.4522792,9.9219235 5.4188263,8.2787933 7.0619565,7.2155914 8.8983961,7.2155914 v 0 c 0.8698924,0 1.5464749,0.2899642 2.2230579,0.5799283 0.386619,0.096655 0.773238,0.2899642 0.966548,0.2899642 0.193309,0 0.579928,-0.1933095 0.966547,-0.2899642 0.773237,-0.3866188 1.836439,-0.7732377 2.802986,-0.676583 0.579929,0 2.609678,0.2899642 3.866189,2.1264038 0.09665,0.096655 0.09665,0.1933094 0.09665,0.3866188 0,0.096655 -0.09665,0.1933094 -0.19331,0.2899642 -0.483273,0.2899645 -1.933094,1.3531655 -1.836439,3.3829145 0,2.513023 2.029749,3.47957 2.319713,3.576225 0.193309,0.09666 0.386619,0.386619 0.289964,0.579928 -0.09666,0.483274 -0.579928,1.64313 -1.449821,2.899642 -0.773237,1.159856 -1.739785,2.609677 -3.382915,2.609677 v 0 c -0.773237,0 -1.256511,-0.19331 -1.739785,-0.386619 -0.483273,-0.193309 -0.869892,-0.386619 -1.546475,-0.386619 -0.676583,0 -1.159857,0.19331 -1.546475,0.386619 -0.386619,0.289964 -0.8698928,0.483274 -1.6431305,0.483274 0.096655,0 0,0 0,0 z"
       style="stroke-width:0.773238;stroke-miterlimit:4;stroke-dasharray:none;stroke-opacity:1" />
    <path
       d="m 12.184656,6.7323179 v 0 h -0.289964 c -0.193309,0 -0.386619,-0.1933095 -0.483273,-0.3866189 -0.19331,-1.4498207 0.483273,-2.8029867 1.256511,-3.6728792 0.869892,-0.9665471 2.223058,-1.73978487 3.382915,-1.73978487 0.289964,0 0.483273,0.19330947 0.483273,0.38661887 0.09666,1.2565113 -0.289964,2.706332 -1.159856,3.7695339 -0.773238,0.9665472 -2.029749,1.6431302 -3.189606,1.6431302 z"
       style="stroke-width:0.773238;stroke-miterlimit:4;stroke-dasharray:none;stroke-opacity:1" />
  </g>
</svg>
