<?xml version="1.0" encoding="UTF-8" standalone="no"?>
<svg
   height="24px"
   viewBox="0 0 24 24"
   width="24px"
   version="1.1"
   xmlns:inkscape="http://www.inkscape.org/namespaces/inkscape"
   xmlns:sodipodi="http://sodipodi.sourceforge.net/DTD/sodipodi-0.dtd"
   xmlns="http://www.w3.org/2000/svg"
   xmlns:svg="http://www.w3.org/2000/svg">
  <style>
        path, g {
          fill: #000000;
        }
        @media (prefers-color-scheme: dark) {
          path, g {
            fill: #E9ECEF;
          }
        }
      </style>
  <path
     d="M 0.39729896,18.660016 Q 0.63462699,15.838451 2.1245191,13.465172 3.6144123,11.091892 6.0931699,9.694294 L 4.1418064,6.3189611 Q 3.9835874,6.0816356 4.0626984,5.8179364 4.1418064,5.5542398 4.4055057,5.4223897 4.6164619,5.2905415 4.8801612,5.3696496 5.143859,5.4487576 5.302078,5.6860869 l 1.9513635,3.3753312 q 2.2678,-0.9493125 4.7465605,-0.9493125 2.478759,0 4.746559,0.9493125 l 1.951365,-3.3753309 q 0.158218,-0.237328 0.421917,-0.3164373 0.263685,-0.079108 0.474656,0.05274 0.263686,0.1318482 0.342805,0.3955467 0.07911,0.2636959 -0.07911,0.5010274 l -1.951365,3.3753299 q 2.478761,1.3975981 3.968652,3.7708781 1.489892,2.373279 1.72722,5.194844 z M 6.7260474,15.759343 q 0.5537649,0 0.9361277,-0.382363 0.3823613,-0.382361 0.3823613,-0.936126 0,-0.553765 -0.3823613,-0.936126 -0.3823628,-0.382363 -0.9361277,-0.382363 -0.553768,0 -0.9361293,0.382363 -0.3823613,0.382361 -0.3823613,0.936126 0,0.553765 0.3823613,0.936126 0.3823613,0.382363 0.9361293,0.382363 z m 10.5479106,0 q 0.553764,0 0.936127,-0.382363 0.382361,-0.382361 0.382361,-0.936126 0,-0.553765 -0.382361,-0.936126 -0.382363,-0.382363 -0.936127,-0.382363 -0.553765,0 -0.936127,0.382363 -0.382362,0.382361 -0.382362,0.936126 0,0.553765 0.382362,0.936126 0.382362,0.382363 0.936127,0.382363 z"
     style="stroke-width:0.0263698" />
</svg>
