<?xml version="1.0" encoding="UTF-8" standalone="no"?>
<svg
   height="24px"
   viewBox="0 0 24 24"
   width="24px"
   version="1.1"
   sodipodi:docname="mobile_device_android.svg"
   inkscape:version="1.1.2 (0a00cf5339, 2022-02-04)"
   xmlns:inkscape="http://www.inkscape.org/namespaces/inkscape"
   xmlns:sodipodi="http://sodipodi.sourceforge.net/DTD/sodipodi-0.dtd"
   xmlns="http://www.w3.org/2000/svg"
   xmlns:svg="http://www.w3.org/2000/svg">
  <style>
        path, g {
          fill: #000000;
        }
        @media (prefers-color-scheme: dark) {
          path, g {
            fill: #E9ECEF;
          }
        }
      </style>
  <path
     d="M17 1.01L7 1c-1.1 0-2 .9-2 2v18c0 1.1.9 2 2 2h10c1.1 0 2-.9 2-2V3c0-1.1-.9-1.99-2-1.99zM17 19H7V5h10v14z" />
  <path
     d="m 7.9196864,14.342123 q 0.083461,-0.992258 0.6074103,-1.826867 0.5239494,-0.83461 1.3956528,-1.326102 L 9.2365149,10.002153 q -0.055641,-0.08346 -0.02782,-0.1761949 0.02782,-0.092734 0.1205547,-0.1391016 0.074187,-0.046367 0.166922,-0.018547 0.092734,0.02782 0.148375,0.1112813 l 0.6862344,1.1870002 q 0.797516,-0.333844 1.66922,-0.333844 0.871703,0 1.669219,0.333844 l 0.686235,-1.1870001 q 0.05564,-0.083461 0.148375,-0.1112813 0.09273,-0.02782 0.166922,0.018547 0.09273,0.046367 0.120554,0.1391016 0.02782,0.092734 -0.02782,0.1761958 l -0.686235,1.187 q 0.871704,0.491492 1.395653,1.326102 0.523949,0.834609 0.60741,1.826867 z m 2.2256266,-1.020078 q 0.194742,0 0.329207,-0.134465 0.134465,-0.134465 0.134465,-0.329207 0,-0.194742 -0.134465,-0.329207 -0.134465,-0.134465 -0.329207,-0.134465 -0.1947432,0 -0.3292081,0.134465 -0.1344648,0.134465 -0.1344648,0.329207 0,0.194742 0.1344648,0.329207 0.1344649,0.134465 0.3292081,0.134465 z m 3.709376,0 q 0.194742,0 0.329207,-0.134465 0.134465,-0.134465 0.134465,-0.329207 0,-0.194742 -0.134465,-0.329207 -0.134465,-0.134465 -0.329207,-0.134465 -0.194742,0 -0.329207,0.134465 -0.134465,0.134465 -0.134465,0.329207 0,0.194742 0.134465,0.329207 0.134465,0.134465 0.329207,0.134465 z"
     style="stroke-width:0.00927344" />
</svg>
