<?xml version="1.0" encoding="UTF-8" standalone="no"?>
<svg
   height="24"
   viewBox="0 0 24 24"
   width="24"
   version="1.1"
   xmlns:inkscape="http://www.inkscape.org/namespaces/inkscape"
   xmlns:sodipodi="http://sodipodi.sourceforge.net/DTD/sodipodi-0.dtd"
   xmlns="http://www.w3.org/2000/svg"
   xmlns:svg="http://www.w3.org/2000/svg">
  <style>
      path, g, circle {
         fill: #000000;
      }
      @media (prefers-color-scheme: dark) {
         path, g, circle {
            fill: #E9ECEF;
         }
      }
   </style>
  <path
     d="M 10.970703 2.0527344 C 5.9340083 2.5688276 2 6.827737 2 12 C 2 17.52 6.4800002 22 12 22 C 17.167624 22 21.424928 18.073166 21.947266 13.042969 L 19.929688 13.042969 C 19.418629 16.969349 16.06623 20 12 20 C 7.5800002 20 4 16.42 4 12 C 4 7.929044 7.0376762 4.5733903 10.970703 4.0683594 L 10.970703 2.0527344 z " />
  <path
     d="M 18.32,4.26 C 16.84,3.05 15.01,2.25 13,2.05 v 2.02 c 1.46,0.18 2.79,0.76 3.9,1.62 z M 19.93,11 h 2.02 c -0.2,-2.01 -1,-3.84 -2.21,-5.32 L 18.31,7.1 c 0.86,1.11 1.44,2.44 1.62,3.9 z"
     sodipodi:nodetypes="cccccccccc" />
  <circle
     cx="12"
     cy="12"
     r="1.5" />
</svg>
